<svg xmlns="http://www.w3.org/2000/svg" viewBox="0 0 900 1200" role="img" aria-label="Affiche Ruby">
  <defs>
    <linearGradient id="bg" x1="0" y1="0" x2="1" y2="1">
      <stop offset="0%" stop-color="#0e0a10" />
      <stop offset="45%" stop-color="#1b1118" />
      <stop offset="100%" stop-color="#060608" />
    </linearGradient>
    <radialGradient id="glow-left" cx="0" cy="0" r="1" gradientUnits="userSpaceOnUse" gradientTransform="translate(220 260) rotate(36) scale(300 360)">
      <stop offset="0%" stop-color="#ff7da7" stop-opacity="0.72" />
      <stop offset="100%" stop-color="#ff7da7" stop-opacity="0" />
    </radialGradient>
    <radialGradient id="glow-right" cx="0" cy="0" r="1" gradientUnits="userSpaceOnUse" gradientTransform="translate(650 520) rotate(24) scale(260 320)">
      <stop offset="0%" stop-color="#d8b56a" stop-opacity="0.26" />
      <stop offset="100%" stop-color="#d8b56a" stop-opacity="0" />
    </radialGradient>
    <linearGradient id="gold" x1="0" y1="0" x2="1" y2="1">
      <stop offset="0%" stop-color="#fff4e3" />
      <stop offset="38%" stop-color="#d8b56a" />
      <stop offset="72%" stop-color="#fff1dc" />
      <stop offset="100%" stop-color="#8b6930" />
    </linearGradient>
    <linearGradient id="ruby" x1="0" y1="0" x2="1" y2="1">
      <stop offset="0%" stop-color="#ff8eb1" />
      <stop offset="50%" stop-color="#dd255e" />
      <stop offset="100%" stop-color="#7b1237" />
    </linearGradient>
    <filter id="soft" x="-30%" y="-30%" width="160%" height="160%">
      <feGaussianBlur stdDeviation="14" result="blur" />
      <feMerge>
        <feMergeNode in="blur" />
        <feMergeNode in="SourceGraphic" />
      </feMerge>
    </filter>
  </defs>

  <rect width="900" height="1200" fill="url(#bg)" />
  <rect width="900" height="1200" fill="url(#glow-left)" />
  <rect width="900" height="1200" fill="url(#glow-right)" />

  <rect x="42" y="42" width="816" height="1116" rx="34" fill="none" stroke="#ffffff" opacity="0.08" />
  <rect x="72" y="72" width="756" height="1056" rx="26" fill="none" stroke="#d8b56a" opacity="0.11" />

  <g filter="url(#soft)">
    <path
      d="M160 770L274 300H420L530 420L484 624L360 804H210Z"
      fill="none"
      stroke="url(#ruby)"
      stroke-width="12"
      opacity="0.95"
    />
    <path
      d="M228 376H396L468 446L434 590L342 734H244L282 582H352L392 510L364 474H258Z"
      fill="none"
      stroke="#ffe1ea"
      stroke-width="5"
      opacity="0.82"
    />
  </g>

  <text x="556" y="470" font-family="Bodoni Moda, serif" font-size="214" fill="url(#gold)">R</text>
  <text x="560" y="582" font-family="Space Grotesk, sans-serif" font-size="68" letter-spacing="18" fill="#f8e8c8">
    RUBY
  </text>
  <text x="560" y="640" font-family="Space Grotesk, sans-serif" font-size="19" letter-spacing="7" fill="#c5b39a">
    EN COURS DE SIGNATURE
  </text>

  <rect x="560" y="366" width="170" height="3" rx="2" fill="#d8b56a" opacity="0.5" />
  <rect x="560" y="668" width="126" height="2" rx="1" fill="#d8b56a" opacity="0.34" />

  <text x="82" y="1082" font-family="Space Grotesk, sans-serif" font-size="21" letter-spacing="8" fill="#d8b56a">
    KAH-PROD
  </text>
  <text x="82" y="1118" font-family="Space Grotesk, sans-serif" font-size="14" letter-spacing="5" fill="#d2c7bc" opacity="0.74">
    ARTIST DEVELOPMENT POSTER
  </text>
</svg>
